<svg width="26" height="26" viewBox="0 0 26 26" fill="none" xmlns="http://www.w3.org/2000/svg">
<path d="M25.35 19.0652V23.9175C25.35 24.6379 24.793 25.2357 24.0745 25.2865C23.4743 25.3289 22.9847 25.35 22.6055 25.35C10.4797 25.35 0.649963 15.5202 0.649963 3.39444C0.649963 3.01531 0.671164 2.52564 0.713566 1.92547C0.764366 1.20695 1.36206 0.649994 2.08237 0.649994H6.93488C7.2871 0.649994 7.5821 0.916781 7.61746 1.26722C7.64922 1.58183 7.67873 1.83441 7.70603 2.02499C7.9836 3.96353 8.55057 5.80867 9.36179 7.51526C9.492 7.78919 9.40709 8.11706 9.16028 8.29335L6.19861 10.409C8.00167 14.6207 11.3792 17.9983 15.591 19.8014L17.7027 16.8448C17.8812 16.5951 18.213 16.5092 18.4902 16.6408C20.1967 17.4513 22.0417 18.0177 23.9799 18.2946C24.1693 18.3217 24.4203 18.351 24.7327 18.3825C25.0832 18.4179 25.35 18.713 25.35 19.0652Z" fill="white"/>
</svg>
